<?xml version="1.0" encoding="UTF-8" standalone="no"?>
<!DOCTYPE svg PUBLIC "-//W3C//DTD SVG 1.1//EN" "http://www.w3.org/Graphics/SVG/1.1/DTD/svg11.dtd">
<svg width="100%" height="100%" viewBox="0 0 849 612" version="1.1" xmlns="http://www.w3.org/2000/svg" xmlns:xlink="http://www.w3.org/1999/xlink" xml:space="preserve" xmlns:serif="http://www.serif.com/" style="fill-rule:evenodd;clip-rule:evenodd;stroke-linejoin:round;stroke-miterlimit:2;">
    <g transform="matrix(1,0,0,1,-174.44935,-2875.937338)">
        <g transform="matrix(1,0,0,1,0,-0.535433)">
            <g transform="matrix(0.557639,0,0,0.599637,-5895.548362,2598.613642)">
                <path d="M11940.412,1316.267L11940.412,1316.271C11940.412,1360.666 11921.448,1403.242 11887.692,1434.634C11853.935,1466.026 11808.152,1483.662 11760.414,1483.662L11671.174,1483.662L11671.174,1145.624C11671.174,1094.859 11715.427,1053.705 11770.016,1053.705L12022.984,1053.705C12054.282,1053.705 12083.243,1037.144 12099.115,1010.169L12148.612,926.048C12161.449,904.23 12161.449,877.168 12148.612,855.351L12099.115,771.229C12083.243,744.255 12054.282,727.693 12022.984,727.693L11860.734,727.693C11827.796,727.693 11797.789,710.091 11783.602,682.447L11701.563,522.592C11694.982,509.769 11695.934,494.703 11704.086,482.685C11712.237,470.668 11726.448,463.379 11741.726,463.379L11979.333,463.379C12215.177,463.379 12406.653,654.855 12406.653,890.699C12406.653,1126.544 12215.177,1318.02 11979.333,1318.02C11966.213,1318.02 11953.231,1317.427 11940.412,1316.267ZM11351.415,1316.267C11338.596,1317.427 11325.614,1318.02 11312.494,1318.02C11076.65,1318.02 10885.174,1126.544 10885.174,890.699C10885.174,654.855 11076.65,463.379 11312.494,463.379L11550.1,463.379C11565.379,463.379 11579.59,470.668 11587.741,482.685C11595.893,494.703 11596.845,509.769 11590.264,522.592L11508.225,682.447C11494.037,710.091 11464.031,727.693 11431.093,727.693L11268.843,727.693C11237.545,727.693 11208.584,744.255 11192.712,771.229L11143.215,855.351C11130.377,877.168 11130.377,904.23 11143.215,926.048L11192.712,1010.169C11208.584,1037.144 11237.545,1053.705 11268.843,1053.705L11521.811,1053.705C11576.4,1053.705 11620.653,1094.859 11620.653,1145.624L11620.653,1483.662L11531.413,1483.662C11483.675,1483.662 11437.891,1466.026 11404.135,1434.634C11370.379,1403.242 11351.415,1360.666 11351.415,1316.271L11351.415,1316.267Z"/>
            </g>
        </g>
    </g>
</svg>
